<svg width="45" height="45" viewBox="0 0 45 45" fill="none" xmlns="http://www.w3.org/2000/svg">
<g clip-path="url(#clip0_30440_219)" filter="url(#filter0_d_30440_219)">
<path d="M41 18.5C41 8.30445 32.6956 0 22.5 0C12.3044 0 4 8.30445 4 18.5C4 24.6256 7.00111 30.0933 11.6467 33.4644C11.7289 33.5467 11.8111 33.5878 11.8933 33.6289C14.8944 35.7667 18.5533 37 22.5 37C26.4467 37 30.1056 35.7667 33.1067 33.6289C33.1889 33.5878 33.2711 33.5056 33.3533 33.4644C37.9989 30.0933 41 24.6256 41 18.5ZM13.0444 32.4367V31.6556C13.0444 26.4344 17.2789 22.2 22.5 22.2C27.7211 22.2 31.9556 26.4344 31.9556 31.6556V32.4367C29.2422 34.2867 25.9944 35.3556 22.5 35.3556C19.0056 35.3556 15.7578 34.2867 13.0444 32.4367ZM17.5667 15.6222C17.5667 12.9089 19.7867 10.6889 22.5 10.6889C25.2133 10.6889 27.4333 12.9089 27.4333 15.6222C27.4333 18.3356 25.2133 20.5556 22.5 20.5556C19.7867 20.5556 17.5667 18.3356 17.5667 15.6222ZM33.6 31.1622C33.3944 26.4756 30.3111 22.57 26.0767 21.1311C27.8856 19.98 29.0778 17.9244 29.0778 15.6222C29.0778 12.0044 26.1178 9.04445 22.5 9.04445C18.8822 9.04445 15.9222 12.0044 15.9222 15.6222C15.9222 17.9244 17.1144 19.98 18.9233 21.1311C14.6889 22.57 11.6056 26.5167 11.4 31.1622C7.86444 28.0789 5.64444 23.5567 5.64444 18.5C5.64444 9.20889 13.2089 1.64444 22.5 1.64444C31.7911 1.64444 39.3556 9.20889 39.3556 18.5C39.3556 23.5567 37.1356 28.0789 33.6 31.1622Z" fill="#767474"/>
</g>
<defs>
<filter id="filter0_d_30440_219" x="0" y="0" width="45" height="45" filterUnits="userSpaceOnUse" color-interpolation-filters="sRGB">
<feFlood flood-opacity="0" result="BackgroundImageFix"/>
<feColorMatrix in="SourceAlpha" type="matrix" values="0 0 0 0 0 0 0 0 0 0 0 0 0 0 0 0 0 0 127 0" result="hardAlpha"/>
<feOffset dy="4"/>
<feGaussianBlur stdDeviation="2"/>
<feComposite in2="hardAlpha" operator="out"/>
<feColorMatrix type="matrix" values="0 0 0 0 0 0 0 0 0 0 0 0 0 0 0 0 0 0 0.25 0"/>
<feBlend mode="normal" in2="BackgroundImageFix" result="effect1_dropShadow_30440_219"/>
<feBlend mode="normal" in="SourceGraphic" in2="effect1_dropShadow_30440_219" result="shape"/>
</filter>
<clipPath id="clip0_30440_219">
<rect width="37" height="37" fill="white" transform="translate(4)"/>
</clipPath>
</defs>
</svg>
